<svg width="170" height="54" viewBox="0 0 170 54" fill="none" xmlns="http://www.w3.org/2000/svg">
<g id="logo 1">
<path id="Vector" d="M142.265 1.3C144.241 1.3 146.216 1.3 148.251 1.3C148.317 7.504 148.383 13.708 148.451 20.1C148.78 19.176 149.109 18.252 149.448 17.3C150.957 14.7998 152.873 13.1606 155.734 12.4375C158.729 11.9387 161.975 12.0682 164.564 13.7703C166.867 15.4651 167.519 17.551 168.204 20.3C168.204 21.95 168.204 23.6 168.204 25.3C163.595 25.3 158.986 25.3 154.237 25.3C154.63 27.6722 154.63 27.6722 155.983 29.45C157.983 30.8381 160.108 30.8103 162.451 30.4602C163.764 30.1853 165.164 29.794 166.244 28.968C166.608 28.7 166.608 28.7 167.207 28.7C167.404 30.218 167.602 31.736 167.805 33.3C164.134 35.6337 160.145 36.1211 155.862 35.6078C153.627 35.1047 151.648 33.9252 150.246 32.1C149.424 30.7736 148.879 29.4036 148.451 27.9C148.385 30.276 148.319 32.652 148.251 35.1C146.605 35.1 144.959 35.1 143.263 35.1C143.131 34.44 143 33.78 142.864 33.1C142.266 33.1 142.077 33.4401 141.654 33.85C139.648 35.6821 137.513 35.8139 134.91 35.7264C133.006 35.6086 131.35 34.6553 130.056 33.275C129.414 32.4745 128.993 31.5595 128.557 30.6344C128.301 30.0743 128.301 30.0743 127.899 29.5C127.827 29.657 127.754 29.814 127.679 29.9758C126.445 32.5617 125.029 33.9441 122.418 35.1281C120.937 35.6322 119.519 35.7719 117.96 35.7625C117.67 35.761 117.67 35.761 117.374 35.7595C114.566 35.7135 112.056 34.9584 109.976 32.9984C108.049 30.782 107.309 28.1872 107.148 25.3C105.707 25.5983 105.707 25.5983 104.554 26.45C103.744 27.7691 103.697 28.9776 103.718 30.4875C103.719 30.6586 103.719 30.8296 103.719 31.0059C103.725 31.913 103.784 32.7873 103.908 33.685C104.179 36.058 104.346 38.7197 102.856 40.7C101.878 41.7942 100.596 42.4151 99.1666 42.7C98.6899 42.7164 98.2127 42.7215 97.7356 42.7195C97.5314 42.7191 97.5314 42.7191 97.323 42.7187C96.89 42.7176 96.457 42.7151 96.024 42.7125C95.7297 42.7115 95.4353 42.7106 95.141 42.7098C94.421 42.7076 93.7011 42.7041 92.9812 42.7C92.9812 41.974 92.9812 41.248 92.9812 40.5C93.3084 40.4925 93.6355 40.4851 93.9726 40.4774C94.407 40.4642 94.8414 40.4509 95.2758 40.4375C95.4908 40.433 95.7059 40.4285 95.9274 40.4238C97.4714 40.3719 98.7217 40.2477 99.9398 39.2125C100.84 38.1243 101.007 37.026 100.94 35.6344C100.893 35.1549 100.836 34.6779 100.775 34.2C100.117 28.2435 100.117 28.2435 101.69 26.0391C102.308 25.3014 102.977 24.6676 103.756 24.1C103.583 23.9969 103.41 23.8938 103.232 23.7875C101.751 22.7794 100.941 21.4497 100.563 19.7C100.431 18.2344 100.531 16.7961 100.669 15.3352C100.688 15.133 100.708 14.9308 100.727 14.7225C100.767 14.3251 100.809 13.9281 100.855 13.5314C101.007 12.0832 100.864 10.8988 100.351 9.5375C99.6135 8.70247 98.6258 8.35994 97.536 8.21695C96.8442 8.17729 96.1557 8.15846 95.4629 8.15C95.2235 8.14407 94.9842 8.13814 94.7376 8.13203C94.1522 8.11801 93.5667 8.10854 92.9812 8.1C92.9812 7.308 92.9812 6.516 92.9812 5.7C93.8625 5.68367 94.7436 5.67184 95.625 5.6625C95.8714 5.65748 96.1178 5.65245 96.3717 5.64727C98.706 5.6288 100.808 5.83454 102.559 7.5C103.719 8.69464 104.027 10.042 104.018 11.6555C104.014 11.8352 104.01 12.0149 104.005 12.2C104.004 12.3797 104.003 12.5594 104.002 12.7445C103.991 13.6719 103.929 14.5686 103.802 15.4863C103.709 16.3219 103.711 17.1601 103.706 18C103.702 18.1797 103.698 18.3594 103.693 18.5445C103.685 19.9851 103.904 21.0895 104.778 22.275C105.53 22.8317 106.236 22.9665 107.148 23.1C107.153 22.9425 107.158 22.785 107.163 22.6227C107.319 19.6206 108.209 16.886 110.34 14.7C113.16 12.4985 116.227 12.0172 119.718 12.3C122.461 12.6698 124.702 13.7584 126.502 15.9C127.093 16.7149 127.571 17.5439 127.899 18.5C128.279 17.9285 128.555 17.3701 128.847 16.75C129.926 14.5909 131.317 13.3531 133.611 12.525C136.119 11.8599 138.827 12.1947 141.093 13.425C141.818 13.8517 141.818 13.8517 142.066 14.1C142.132 9.876 142.197 5.652 142.265 1.3ZM114.588 18.4461C112.96 20.4405 112.828 22.9336 112.977 25.4141C113.184 27.0854 113.631 28.7459 114.93 29.9C116.185 30.7388 117.406 31.0125 118.908 30.8C120.245 30.4904 121.105 29.7544 121.827 28.5984C122.624 27.0691 122.752 25.7655 122.761 24.0625C122.765 23.8835 122.769 23.7044 122.774 23.5199C122.784 21.7491 122.452 20.1009 121.315 18.7C120.271 17.6631 119.327 17.2426 117.86 17.225C116.491 17.2529 115.563 17.4579 114.588 18.4461ZM134.833 18.6875C133.273 20.7163 133.243 23.456 133.486 25.9C133.781 27.611 134.344 28.9619 135.681 30.1C136.817 30.8359 137.923 30.9889 139.247 30.7875C140.394 30.534 141.431 29.9358 142.265 29.1C142.293 28.7875 142.308 28.4737 142.316 28.16C142.322 27.9597 142.328 27.7594 142.334 27.553C142.353 26.633 142.368 25.713 142.379 24.7929C142.386 24.3077 142.397 23.8225 142.412 23.3375C142.432 22.6386 142.441 21.9405 142.448 21.2414C142.456 21.0251 142.465 20.8088 142.474 20.586C142.483 19.4364 142.483 19.4364 141.888 18.5024C139.621 16.9404 136.881 16.6347 134.833 18.6875ZM155.329 18.4227C154.477 19.5396 154.237 20.4829 154.237 21.9C156.871 21.9 159.505 21.9 162.218 21.9C162.218 20.476 162.085 19.2643 161.122 18.157C160.086 17.2642 159.155 17.2294 157.844 17.2453C156.804 17.338 156.05 17.6591 155.329 18.4227Z" fill="#FEFFFE"/>
<path id="Vector_2" d="M76.5449 5.675C76.8024 5.6768 77.0598 5.67861 77.3251 5.68046C77.9546 5.68514 78.5841 5.69231 79.2136 5.7C79.2136 6.492 79.2136 7.284 79.2136 8.1C78.8433 8.10515 78.4729 8.11031 78.0913 8.11562C77.6008 8.12688 77.1102 8.13835 76.6197 8.15C76.3762 8.15283 76.1326 8.15567 75.8816 8.15859C74.4485 8.19741 73.4404 8.30759 72.2301 9.1C70.5176 11.2126 71.2673 14.2593 71.5247 16.7754C71.6998 18.7428 71.6338 20.8385 70.4343 22.5C69.7607 23.1902 69.04 23.765 68.2395 24.3C68.4082 24.399 68.5769 24.498 68.7507 24.6C70.0802 25.4968 71.0793 26.7221 71.4319 28.3C71.7552 29.9965 71.5632 31.6396 71.3873 33.3397C70.9702 36.3616 70.9702 36.3616 72.0305 39.1C73.054 40.2138 74.5187 40.3022 75.9596 40.3828C76.35 40.3985 76.7405 40.4126 77.131 40.425C77.4329 40.4366 77.4329 40.4366 77.7409 40.4484C78.2318 40.4671 78.7227 40.4837 79.2136 40.5C79.2136 41.226 79.2136 41.952 79.2136 42.7C78.3693 42.715 77.525 42.7258 76.6805 42.733C76.3941 42.7359 76.1078 42.74 75.8214 42.7453C73.5976 42.7849 71.5829 42.7193 69.7866 41.2461C68.4432 39.9175 68.029 38.3586 67.99 36.5125C68.0045 35.4661 68.1065 34.4485 68.2395 33.4125C68.6628 30.0913 68.6628 30.0913 67.8404 26.9C67.2469 26.1485 66.7469 25.7882 65.8451 25.5C65.3363 25.4593 64.8485 25.4378 64.3398 25.4362C64.1917 25.4342 64.0437 25.4322 63.8911 25.4301C63.4043 25.424 62.9174 25.4206 62.4305 25.4172C62.0919 25.4134 61.7533 25.4095 61.4148 25.4054C60.5255 25.3952 59.6363 25.3873 58.747 25.3798C57.8388 25.3718 56.9307 25.3616 56.0225 25.3516C54.2419 25.3322 52.4614 25.3153 50.6808 25.3C50.7389 25.6156 50.7984 25.9309 50.8585 26.2461C50.8915 26.4217 50.9244 26.5973 50.9584 26.7783C51.2811 28.1649 51.8844 29.0967 53.0751 29.9C55.3442 31.0715 58.0251 30.8101 60.3931 30.0711C61.235 29.7547 62.0303 29.4354 62.8007 28.968C63.2512 28.7 63.2512 28.7 63.6502 28.7C63.7571 29.312 63.8599 29.9247 63.962 30.5375C63.9922 30.7104 64.0225 30.8832 64.0536 31.0613C64.3489 32.8579 64.3489 32.8579 64.0493 33.5C63.4959 33.8828 63.4959 33.8828 62.7773 34.225C62.589 34.3148 62.589 34.3148 62.3969 34.4063C61.3188 34.9049 60.2257 35.2629 59.061 35.5C58.8908 35.5366 58.7205 35.5732 58.5451 35.6109C55.3094 36.034 51.6388 36.0516 48.885 34.1C46.6384 32.3316 45.5669 30.4689 44.8944 27.7C44.8285 26.908 44.7627 26.116 44.6949 25.3C40.4149 25.3 36.135 25.3 31.7254 25.3C32.3382 28.0946 32.3382 28.0946 34.1197 29.975C36.3595 31.0778 39.133 30.7941 41.4346 30.0703C42.2784 29.7556 43.0739 29.4361 43.8453 28.968C44.2958 28.7 44.2958 28.7 44.6949 28.7C44.7956 29.279 44.8952 29.8582 44.9941 30.4375C45.0227 30.6008 45.0512 30.7641 45.0807 30.9324C45.3885 32.7469 45.3885 32.7469 45.2934 33.3C43.0373 35.3848 39.4282 35.7719 36.5141 35.7625C36.314 35.7657 36.1139 35.7689 35.9077 35.7723C33.1161 35.7741 30.5849 34.8759 28.5399 32.9453C25.9022 30.0528 25.5748 26.1347 25.7108 22.4065C25.8661 19.6602 26.7918 16.8606 28.7355 14.8477C31.3255 12.5735 34.348 12.067 37.681 12.2631C39.4059 12.4114 40.8592 12.9548 42.3005 13.9C42.4733 14.0114 42.6462 14.1227 42.8243 14.2375C44.007 15.3918 44.8003 16.7298 45.2934 18.3C45.7309 17.7409 46.0772 17.1732 46.4158 16.55C47.6876 14.418 49.6324 13.241 51.9652 12.5375C54.7727 11.9021 57.9834 12.0264 60.5201 13.45C62.5928 14.8173 63.9038 16.764 64.5232 19.1875C64.7474 20.4725 64.7825 21.799 64.8474 23.1C65.9576 22.9157 66.8501 22.7626 67.6409 21.9C68.7272 19.7611 68.5398 17.5279 68.2395 15.2125C67.9216 12.7113 67.6777 10.189 69.05 7.95C70.904 5.59647 73.8216 5.63845 76.5449 5.675ZM32.8851 18.525C32.0742 19.5298 31.7254 20.617 31.7254 21.9C34.3592 21.9 36.993 21.9 39.7066 21.9C39.7143 19.804 39.7143 19.804 38.6099 18.1852C37.55 17.2605 36.6547 17.2407 35.3052 17.2586C34.2213 17.3351 33.6131 17.7598 32.8851 18.525ZM51.8405 18.5375C50.9892 19.5969 50.6808 20.5456 50.6808 21.9C53.3146 21.9 55.9484 21.9 58.662 21.9C58.662 20.382 58.5998 19.3108 57.5653 18.1711C55.8651 16.6964 53.3403 16.9354 51.8405 18.5375Z" fill="#FEFFFE"/>
<path id="Vector_3" d="M0.39917 3.1C2.83544 3.1 5.27171 3.1 7.7818 3.1C9.21423 7.36753 10.6045 11.6462 11.9696 15.9357C12.1052 16.3618 12.2408 16.788 12.3765 17.2141C12.443 17.4231 12.5095 17.6322 12.5781 17.8475C13.2346 19.9087 13.8989 21.9672 14.5658 24.025C14.6176 24.1849 14.6695 24.3447 14.7228 24.5094C15.0028 25.3731 15.283 26.2366 15.5635 27.1C17.0848 22.5871 18.5577 18.0588 20.0155 13.525C20.0798 13.3253 20.0798 13.3253 20.1453 13.1215C21.2189 9.78321 22.2863 6.44301 23.3452 3.1C25.7156 3.1 28.086 3.1 30.5283 3.1C29.8548 5.35026 29.8548 5.35026 29.5063 6.36557C29.3888 6.7086 29.3888 6.7086 29.269 7.05855C29.1856 7.30091 29.1022 7.54327 29.0162 7.79297C28.9268 8.05352 28.8375 8.31408 28.7481 8.57465C28.51 9.26876 28.2714 9.96269 28.0327 10.6566C27.8836 11.0901 27.7346 11.5238 27.5857 11.9574C26.0963 16.2941 24.5979 20.6276 23.0859 24.9564C22.4926 26.6551 21.9013 28.3544 21.3101 30.0538C20.7249 31.7359 20.1395 33.4179 19.5541 35.1C16.7228 35.1 13.8914 35.1 10.9743 35.1C9.42485 30.5729 7.89096 26.0418 6.38509 21.5C5.28805 18.1913 4.1826 14.886 3.05542 11.5875C2.94055 11.2511 2.82568 10.9148 2.71082 10.5784C2.5501 10.1079 2.38936 9.63733 2.22858 9.16681C1.79127 7.88691 1.35439 6.60689 0.922938 5.325C0.838951 5.07883 0.838951 5.07883 0.753268 4.82768C0.552238 4.22692 0.39917 3.73833 0.39917 3.1Z" fill="white"/>
<path id="Vector_4" d="M94.1783 14.3C93.747 15.688 93.2019 16.9862 92.582 18.3C92.3943 18.2301 92.2065 18.1603 92.0131 18.0883C91.7621 17.9963 91.5112 17.9044 91.2602 17.8125C90.8921 17.6768 90.8921 17.6768 90.5166 17.5383C88.4719 16.869 86.6201 16.9513 84.6757 17.825C83.3366 18.6585 82.695 19.9363 82.3109 21.4266C81.7099 24.1507 81.7983 27.2985 83.3015 29.7328C84.1359 30.7486 85.3261 31.2666 86.5961 31.5C88.4053 31.6738 89.8875 31.3053 91.5844 30.7C91.9833 30.5661 92.3823 30.4326 92.7816 30.3C94.3778 33.4431 94.3778 33.4431 94.3778 34.3C91.0445 36.041 87.4882 36.6308 83.8027 35.7C81.221 34.8657 79.3793 33.4693 78.0163 31.1C76.3583 27.2896 76.1357 22.4186 77.6173 18.5C78.4987 16.3758 80.0778 14.4589 82.2065 13.5C86.1016 12.1206 90.5982 11.9633 94.1783 14.3Z" fill="#33FFCD"/>
<path id="Vector_5" d="M76.545 5.675C76.8024 5.6768 77.0599 5.67861 77.3252 5.68046C77.9547 5.68514 78.5842 5.69231 79.2137 5.7C79.2137 6.492 79.2137 7.284 79.2137 8.1C78.8433 8.10515 78.4729 8.11031 78.0913 8.11562C77.6008 8.12688 77.1103 8.13835 76.6198 8.15C76.3762 8.15283 76.1326 8.15567 75.8817 8.15859C74.4486 8.19741 73.4404 8.30759 72.2301 9.1C70.5176 11.2126 71.2674 14.2593 71.5247 16.7754C71.6999 18.7428 71.6339 20.8385 70.4343 22.5C69.7607 23.1902 69.04 23.765 68.2395 24.3C68.4082 24.399 68.577 24.498 68.7508 24.6C70.0802 25.4968 71.0794 26.7221 71.432 28.3C71.7553 29.9965 71.5632 31.6396 71.3873 33.3397C70.9703 36.3616 70.9702 36.3616 72.0306 39.1C73.054 40.2138 74.5188 40.3022 75.9596 40.3828C76.35 40.3985 76.7405 40.4126 77.1311 40.425C77.433 40.4366 77.433 40.4366 77.741 40.4484C78.2318 40.4671 78.7227 40.4837 79.2137 40.5C79.2137 41.226 79.2137 41.952 79.2137 42.7C78.3693 42.715 77.525 42.7258 76.6806 42.733C76.3942 42.7359 76.1078 42.74 75.8215 42.7453C73.5977 42.7849 71.583 42.7193 69.7866 41.2461C68.4432 39.9175 68.029 38.3586 67.9901 36.5125C68.0046 35.4661 68.1066 34.4485 68.2395 33.4125C68.6629 30.0913 68.6629 30.0913 67.8404 26.9C66.9458 25.7673 66.0362 25.4942 64.6479 25.3C64.6479 24.574 64.6479 23.848 64.6479 23.1C64.9566 23.0505 65.2652 23.001 65.5832 22.95C66.4644 22.7691 67.0256 22.5916 67.6409 21.9C68.7273 19.7611 68.5398 17.5279 68.2395 15.2125C67.9216 12.7113 67.6777 10.189 69.0501 7.95C70.9041 5.59647 73.8217 5.63845 76.545 5.675Z" fill="#33FFCD"/>
<path id="Vector_6" d="M92.9812 5.7C93.8625 5.68366 94.7436 5.67183 95.625 5.6625C95.9946 5.65495 95.9946 5.65495 96.3717 5.64726C98.706 5.62879 100.808 5.83453 102.559 7.5C103.719 8.69463 104.027 10.042 104.018 11.6555C104.014 11.8352 104.01 12.0149 104.005 12.2C104.004 12.3797 104.003 12.5594 104.002 12.7445C103.991 13.6719 103.929 14.5686 103.802 15.4863C103.709 16.3219 103.711 17.1601 103.706 18C103.702 18.1797 103.698 18.3594 103.693 18.5445C103.685 19.9851 103.904 21.0895 104.778 22.275C105.555 22.8506 106.198 22.9437 107.148 23.1C107.148 23.826 107.148 24.552 107.148 25.3C106.839 25.3742 106.531 25.4485 106.213 25.525C105.151 25.8471 104.735 26.1543 104.155 27.1C103.742 28.2454 103.701 29.2767 103.718 30.4875C103.719 30.6586 103.719 30.8296 103.719 31.0059C103.725 31.913 103.784 32.7872 103.908 33.685C104.179 36.0579 104.346 38.7197 102.856 40.7C101.878 41.7942 100.596 42.4151 99.1666 42.7C98.6899 42.7164 98.2127 42.7215 97.7356 42.7195C97.5314 42.7191 97.5314 42.7191 97.323 42.7187C96.89 42.7176 96.457 42.715 96.024 42.7125C95.7297 42.7115 95.4353 42.7106 95.141 42.7098C94.421 42.7076 93.7011 42.7041 92.9812 42.7C92.9812 41.974 92.9812 41.248 92.9812 40.5C93.3084 40.4925 93.6355 40.485 93.9726 40.4773C94.407 40.4642 94.8414 40.4509 95.2758 40.4375C95.4908 40.433 95.7059 40.4285 95.9274 40.4238C97.4714 40.3719 98.7217 40.2477 99.9398 39.2125C100.84 38.1243 101.007 37.026 100.94 35.6344C100.893 35.1549 100.836 34.6779 100.775 34.2C100.117 28.2435 100.117 28.2435 101.69 26.0391C102.308 25.3014 102.977 24.6676 103.756 24.1C103.583 23.9969 103.41 23.8937 103.232 23.7875C101.751 22.7794 100.941 21.4497 100.563 19.7C100.431 18.2344 100.531 16.7961 100.669 15.3352C100.688 15.133 100.708 14.9308 100.727 14.7225C100.767 14.3251 100.809 13.9281 100.855 13.5314C101.007 12.0832 100.864 10.8988 100.351 9.5375C99.6135 8.70247 98.6258 8.35993 97.536 8.21694C96.8442 8.17728 96.1557 8.15845 95.4629 8.15C95.2235 8.14407 94.9842 8.13814 94.7376 8.13203C94.1522 8.118 93.5667 8.10853 92.9812 8.1C92.9812 7.308 92.9812 6.516 92.9812 5.7Z" fill="#33FFCD"/>
<path id="Vector_7" d="M160.269 44.0602C160.91 44.4036 161.186 44.5972 161.42 45.3C161.531 45.2157 161.641 45.1314 161.755 45.0445C161.9 44.935 162.044 44.8254 162.193 44.7125C162.337 44.6034 162.48 44.4944 162.628 44.382C163.55 43.7118 164.506 43.7945 165.61 43.9C166.473 44.1477 166.933 44.592 167.441 45.3375C168.045 46.6069 167.889 48.028 167.855 49.4C167.851 49.6818 167.847 49.9635 167.844 50.2453C167.835 50.9304 167.821 51.6151 167.805 52.3C167.344 52.3 166.883 52.3 166.408 52.3C166.402 52.0929 166.402 52.0929 166.396 51.8816C166.377 51.2502 166.355 50.6188 166.333 49.9875C166.327 49.7703 166.321 49.5531 166.315 49.3293C166.296 47.3996 166.296 47.3996 165.485 45.7125C164.793 45.4019 164.15 45.3407 163.415 45.5C162.773 46.0069 162.477 46.3226 162.218 47.1C162.188 47.4981 162.169 47.8971 162.155 48.2961C162.142 48.6451 162.142 48.6451 162.13 49.0012C162.122 49.2442 162.114 49.4871 162.106 49.7375C162.093 50.1055 162.093 50.1055 162.08 50.4809C162.059 51.0872 162.038 51.6936 162.019 52.3C161.558 52.3 161.097 52.3 160.622 52.3C160.619 52.1559 160.616 52.0117 160.613 51.8632C160.598 51.2046 160.579 50.5461 160.559 49.8875C160.555 49.6608 160.55 49.434 160.546 49.2004C160.506 47.9646 160.452 46.9786 159.824 45.9C159.09 45.4098 158.481 45.3352 157.629 45.5C156.926 46.0399 156.585 46.436 156.432 47.3C156.403 47.6901 156.382 48.0809 156.369 48.4719C156.36 48.6949 156.352 48.9179 156.343 49.1477C156.331 49.4953 156.331 49.4953 156.319 49.85C156.307 50.2023 156.307 50.2023 156.293 50.5617C156.272 51.1411 156.252 51.7205 156.232 52.3C155.771 52.3 155.31 52.3 154.835 52.3C154.835 49.594 154.835 46.888 154.835 44.1C155.296 44.1 155.757 44.1 156.232 44.1C156.298 44.298 156.364 44.496 156.432 44.7C156.584 44.568 156.736 44.436 156.893 44.3C157.887 43.639 159.168 43.6641 160.269 44.0602Z" fill="white"/>
<path id="Vector_8" d="M140.27 40.9C140.27 41.296 140.27 41.692 140.27 42.1C139.809 42.232 139.348 42.364 138.873 42.5C138.808 43.028 138.742 43.556 138.674 44.1C139.201 44.1 139.727 44.1 140.27 44.1C140.27 44.496 140.27 44.892 140.27 45.3C139.743 45.3 139.217 45.3 138.674 45.3C138.674 47.61 138.674 49.92 138.674 52.3C138.147 52.3 137.62 52.3 137.078 52.3C137.078 49.99 137.078 47.68 137.078 45.3C136.09 45.3 135.102 45.3 134.085 45.3C134.085 47.082 134.085 48.864 134.085 50.7C134.743 50.766 135.402 50.832 136.08 50.9C136.08 51.362 136.08 51.824 136.08 52.3C133.873 52.3773 133.873 52.3773 133.087 51.9C132.424 51.2163 132.418 50.6863 132.43 49.7531C132.432 49.494 132.434 49.2349 132.436 48.968C132.441 48.6953 132.446 48.4227 132.451 48.15C132.454 47.8742 132.457 47.5984 132.459 47.3227C132.466 46.6484 132.476 45.9742 132.488 45.3C132.159 45.3 131.83 45.3 131.491 45.3C131.491 44.904 131.491 44.508 131.491 44.1C131.82 44.1 132.149 44.1 132.488 44.1C132.488 43.44 132.488 42.78 132.488 42.1C133.015 42.1 133.542 42.1 134.085 42.1C134.085 42.76 134.085 43.42 134.085 44.1C135.072 44.1 136.06 44.1 137.078 44.1C137.09 43.7906 137.102 43.4812 137.115 43.1625C137.192 42.3744 137.249 42.1358 137.751 41.4875C138.597 40.8616 139.243 40.8806 140.27 40.9Z" fill="white"/>
<path id="Vector_9" d="M128.223 44.3C128.556 44.498 128.556 44.498 128.896 44.7C128.962 44.502 129.028 44.304 129.096 44.1C129.623 44.1 130.15 44.1 130.692 44.1C130.692 46.806 130.692 49.512 130.692 52.3C130.165 52.3 129.639 52.3 129.096 52.3C128.997 51.904 128.997 51.904 128.896 51.5C128.72 51.632 128.543 51.764 128.36 51.9C127.283 52.517 126.107 52.4522 124.906 52.3C123.728 51.7516 122.92 50.8388 122.449 49.625C122.145 48.015 122.262 46.7552 123.123 45.3539C124.349 43.7122 126.455 43.4185 128.223 44.3ZM124.507 46.1C123.893 47.0916 123.816 47.8745 123.982 49.0258C124.195 49.8309 124.466 50.1543 125.105 50.7C125.965 51.121 126.53 51.1516 127.45 50.875C128.29 50.3893 128.786 50.032 129.096 49.1C129.201 48.1011 129.206 47.3241 128.759 46.4125C128.035 45.6082 127.602 45.3336 126.515 45.2125C125.655 45.2515 125.151 45.5139 124.507 46.1Z" fill="white"/>
<path id="Vector_10" d="M146.717 44.2125C147.707 44.784 148.488 45.6109 148.85 46.7C149.093 49.8439 149.093 49.8439 148.052 51.1C146.787 52.2467 145.648 52.3827 143.967 52.3687C142.988 52.2731 142.37 51.9817 141.667 51.3C140.577 49.8991 140.524 48.6291 140.669 46.9C141 45.7062 141.666 44.9945 142.664 44.3C143.946 43.6961 145.411 43.6257 146.717 44.2125ZM142.465 46.5C142.078 47.6642 142.078 48.8791 142.577 50C143.184 50.6238 143.618 50.875 144.46 51.1C145.334 51.06 145.923 50.7961 146.63 50.2875C147.347 49.2938 147.509 48.3719 147.366 47.1625C146.957 46.2942 146.504 45.759 145.657 45.3C144.287 44.939 143.338 45.4297 142.465 46.5Z" fill="white"/>
<path id="Vector_11" d="M111.937 41.9C117.216 41.9 117.216 41.9 118.496 42.9875C119.091 43.7569 119.046 44.5919 119.003 45.5305C118.89 46.3086 118.669 46.737 118.122 47.3C117.111 47.9408 116.307 47.9754 115.154 47.9375C114.619 47.9251 114.084 47.9128 113.533 47.9C113.533 49.352 113.533 50.804 113.533 52.3C113.006 52.3 112.479 52.3 111.937 52.3C111.937 48.868 111.937 45.436 111.937 41.9ZM113.533 43.1C113.533 44.288 113.533 45.476 113.533 46.7C114.144 46.7186 114.144 46.7186 114.767 46.7375C115.111 46.7479 115.111 46.7479 115.462 46.7586C116.193 46.6942 116.55 46.5503 117.124 46.1C117.49 45.29 117.584 44.8901 117.311 44.0375C116.863 43.4148 116.648 43.3187 115.927 43.1C115.303 43.052 115.303 43.052 114.668 43.075C114.293 43.0833 113.919 43.0915 113.533 43.1Z" fill="white"/>
<path id="Vector_12" d="M154.038 43.9C154.038 44.428 154.038 44.956 154.038 45.5C153.915 45.5173 153.792 45.5345 153.666 45.5523C153.505 45.5804 153.343 45.6085 153.177 45.6375C153.018 45.663 152.858 45.6885 152.693 45.7148C152.061 45.9741 151.941 46.2908 151.643 46.9C151.544 47.5172 151.544 47.5172 151.541 48.1789C151.534 48.4193 151.527 48.6597 151.52 48.9074C151.513 49.2812 151.513 49.2812 151.506 49.6625C151.499 49.9155 151.493 50.1686 151.486 50.4293C151.469 51.0528 151.455 51.6763 151.444 52.3C150.917 52.3 150.39 52.3 149.848 52.3C149.848 49.594 149.848 46.888 149.848 44.1C150.374 44.1 150.901 44.1 151.444 44.1C151.51 44.298 151.576 44.496 151.643 44.7C151.903 44.502 151.903 44.502 152.167 44.3C152.883 43.8746 153.225 43.8224 154.038 43.9Z" fill="white"/>
<path id="Vector_13" d="M119.918 41.3C120.379 41.3 120.84 41.3 121.315 41.3C121.315 44.93 121.315 48.56 121.315 52.3C120.854 52.3 120.393 52.3 119.918 52.3C119.918 48.67 119.918 45.04 119.918 41.3Z" fill="white"/>
</g>
</svg>
