<svg width="20" height="20" viewBox="0 0 20 20" fill="none" xmlns="http://www.w3.org/2000/svg">
<path id="Vector" d="M10 20C8.61667 20 7.31667 19.7375 6.1 19.2125C4.88333 18.6875 3.825 17.975 2.925 17.075C2.025 16.175 1.3125 15.1167 0.7875 13.9C0.2625 12.6833 0 11.3833 0 10C0 8.61667 0.2625 7.31667 0.7875 6.1C1.3125 4.88333 2.025 3.825 2.925 2.925C3.825 2.025 4.88333 1.3125 6.1 0.7875C7.31667 0.2625 8.61667 0 10 0C11.3833 0 12.6833 0.2625 13.9 0.7875C15.1167 1.3125 16.175 2.025 17.075 2.925C17.975 3.825 18.6875 4.88333 19.2125 6.1C19.7375 7.31667 20 8.61667 20 10C20 11.3833 19.7375 12.6833 19.2125 13.9C18.6875 15.1167 17.975 16.175 17.075 17.075C16.175 17.975 15.1167 18.6875 13.9 19.2125C12.6833 19.7375 11.3833 20 10 20ZM10 18C12.2333 18 14.125 17.225 15.675 15.675C17.225 14.125 18 12.2333 18 10C18 9.88333 17.9958 9.7625 17.9875 9.6375C17.9792 9.5125 17.975 9.40833 17.975 9.325C17.8917 9.80833 17.6667 10.2083 17.3 10.525C16.9333 10.8417 16.5 11 16 11H14C13.45 11 12.9792 10.8042 12.5875 10.4125C12.1958 10.0208 12 9.55 12 9V8H8V6C8 5.45 8.19583 4.97917 8.5875 4.5875C8.97917 4.19583 9.45 4 10 4H11C11 3.61667 11.1042 3.27917 11.3125 2.9875C11.5208 2.69583 11.775 2.45833 12.075 2.275C11.7417 2.19167 11.4042 2.125 11.0625 2.075C10.7208 2.025 10.3667 2 10 2C7.76667 2 5.875 2.775 4.325 4.325C2.775 5.875 2 7.76667 2 10H7C8.1 10 9.04167 10.3917 9.825 11.175C10.6083 11.9583 11 12.9 11 14V15H8V17.75C8.33333 17.8333 8.6625 17.8958 8.9875 17.9375C9.3125 17.9792 9.65 18 10 18Z" fill="white"/>
</svg>
